


<svg preserveAspectRatio="none" width="100%" height="350px" fill="none" xmlns="http://www.w3.org/2000/svg" viewBox="0 0 1440 320">
<path fill="#211b5c" fill-opacity="1" d="M0,160L48,149.3C96,139,192,117,288,117.3C384,117,480,139,576,144C672,149,768,139,864,112C960,85,1056,43,1152,42.7C1248,43,1344,85,1392,106.7L1440,128L1440,320L1392,320C1344,320,1248,320,1152,320C1056,320,960,320,864,320C768,320,672,320,576,320C480,320,384,320,288,320C192,320,96,320,48,320L0,320Z">
   <animate 
                repeatCount="indefinite" 
                fill="url(#grad1)" 
                attributeName="d" 
                dur="15s"
                attributeType="XML"
                values="
                  M0 77 
                  C 473,283
                    822,-40
                    1920,116 
                  
                  V 359 
                  H 0 
                  V 67 
                  Z; 
      
                  M0 77 
                  C 473,-40
                    1222,283
                    1920,136 
                  
                  V 359 
                  H 0 
                  V 67 
                  Z; 
      
                  M0 77 
                  C 973,260
                    1722,-53
                    1920,120 
                  
                  V 359 
                  H 0 
                  V 67 
                  Z; 
      
                  M0 77 
                  C 473,283
                    822,-40
                    1920,116 
                  
                  V 359 
                  H 0 
                  V 67 
                  Z
                  ">
              </animate> </path></svg>

          